<?xml version="1.0" encoding="UTF-8" standalone="no"?>
<svg
   width="512"
   height="512"
   viewBox="0 0 512 512"
   version="1.1"
   id="svg9"
   sodipodi:docname="openmarkov.svg"
   inkscape:version="1.4 (e7c3feb100, 2024-10-09)"
   inkscape:export-filename="openmarkov.png"
   inkscape:export-xdpi="96"
   inkscape:export-ydpi="96"
   xmlns:inkscape="http://www.inkscape.org/namespaces/inkscape"
   xmlns:sodipodi="http://sodipodi.sourceforge.net/DTD/sodipodi-0.dtd"
   xmlns="http://www.w3.org/2000/svg"
   xmlns:svg="http://www.w3.org/2000/svg">
  <sodipodi:namedview
     id="namedview9"
     pagecolor="#ffffff"
     bordercolor="#000000"
     borderopacity="0.25"
     inkscape:showpageshadow="2"
     inkscape:pageopacity="0.0"
     inkscape:pagecheckerboard="0"
     inkscape:deskcolor="#d1d1d1"
     inkscape:zoom="2.5480703"
     inkscape:cx="222.3251"
     inkscape:cy="216.24207"
     inkscape:window-width="2901"
     inkscape:window-height="2094"
     inkscape:window-x="432"
     inkscape:window-y="23"
     inkscape:window-maximized="0"
     inkscape:current-layer="svg9" />
  <defs
     id="defs1">
    <marker
       id="arrow"
       markerWidth="7"
       markerHeight="7"
       refX="5.2"
       refY="3"
       orient="auto"
       markerUnits="strokeWidth">
      <path
         d="M0,0 L0,6 L6,3 z"
         fill="#3A3F52"
         id="path1" />
    </marker>
  </defs>
  <line
     x1="136.8203"
     y1="123.33571"
     x2="203.71196"
     y2="205.30777"
     stroke="#3a3f52"
     stroke-width="10.1773"
     stroke-linecap="round"
     marker-end="url(#arrow)"
     id="line1" />
  <line
     x1="129.50899"
     y1="380.99988"
     x2="198.44638"
     y2="310.34744"
     stroke="#3a3f52"
     stroke-width="10.2457"
     stroke-linecap="round"
     marker-end="url(#arrow)"
     id="line2" />
  <line
     x1="303.80115"
     y1="218.52272"
     x2="390.70505"
     y2="129.47031"
     stroke="#3a3f52"
     stroke-width="10.2163"
     stroke-linecap="round"
     marker-end="url(#arrow)"
     id="line3" />
  <line
     x1="297.80212"
     y1="297.2912"
     x2="382.98196"
     y2="384.22546"
     stroke="#3a3f52"
     stroke-width="9"
     stroke-linecap="round"
     marker-end="url(#arrow)"
     id="line4" />
  <ellipse
     cx="92.822647"
     cy="73.630127"
     rx="85.156418"
     ry="66.371513"
     fill="#ffd23f"
     stroke="#e0392b"
     stroke-width="8.66954"
     id="ellipse4" />
  <polygon
     points="75.1,107.8 77.2,103.1 79.3,98.1 81.4,92.8 83.5,87.5 85.6,82.6 87.7,78.4 89.8,75.1 91.9,73 94,72.3 96.1,73 98.2,75.1 100.3,78.4 102.4,82.6 104.5,87.5 106.6,92.8 108.7,98.1 110.8,103.1 112.9,107.8 115,111.9 117.1,115.4 119.2,118.3 121.3,120.5 123.4,122.3 125.5,123.5 127.6,124.5 129.7,125.1 131.8,125.6 133.9,125.8 136,126 136,126.3 52,126.3 52,126 54.1,125.8 56.2,125.6 58.3,125.1 60.4,124.5 62.5,123.5 64.6,122.3 66.7,120.5 68.8,118.3 70.9,115.4 73,111.9 "
     fill="#fbf6ec"
     stroke="none"
     id="polygon4"
     transform="matrix(1.3454366,0,0,1.4121538,-35.063584,-73.323814)" />
  <line
     x1="31.296854"
     y1="106.76803"
     x2="152.38615"
     y2="106.76803"
     stroke="#b82a1e"
     stroke-width="5.87389"
     stroke-linecap="round"
     id="line5" />
  <polyline
     points="52.0,126.0 54.1,125.8 56.2,125.6 58.3,125.1 60.4,124.5 62.5,123.5 64.6,122.3 66.7,120.5 68.8,118.3 70.9,115.4 73.0,111.9 75.1,107.8 77.2,103.1 79.3,98.1 81.4,92.8 83.5,87.5 85.6,82.6 87.7,78.4 89.8,75.1 91.9,73.0 94.0,72.3 96.1,73.0 98.2,75.1 100.3,78.4 102.4,82.6 104.5,87.5 106.6,92.8 108.7,98.1 110.8,103.1 112.9,107.8 115.0,111.9 117.1,115.4 119.2,118.3 121.3,120.5 123.4,122.3 125.5,123.5 127.6,124.5 129.7,125.1 131.8,125.6 133.9,125.8 136.0,126.0"
     fill="none"
     stroke="#b82a1e"
     stroke-width="7"
     stroke-linejoin="round"
     stroke-linecap="round"
     id="polyline5"
     transform="matrix(1.3454366,0,0,1.4121538,-34.629541,-71.587005)" />
  <ellipse
     cx="95.373589"
     cy="436.21136"
     rx="84.609009"
     ry="65.431648"
     fill="#f2933b"
     stroke="#d97312"
     stroke-width="8.49808"
     id="ellipse5" />
  <polygon
     points="78.6,456.6 90.5,423 73,423 81.4,377.5 115,377.5 95.4,412.5 113.6,412.5 "
     fill="#ffffff"
     stroke="none"
     id="polygon5"
     transform="matrix(1.2087001,0,0,1.258301,-18.244224,-87.241812)" />
  <polygon
     points="450,48.3 482,96 450,143.7 386,143.7 354,96 386,48.3 "
     fill="#5fb330"
     stroke="#3e8b1b"
     stroke-width="7"
     stroke-linejoin="round"
     id="polygon6"
     transform="matrix(1.2384901,0,0,1.3525324,-92.820888,-55.624308)" />
  <polygon
     points="450,368.3 482,416 450,463.7 386,463.7 354,416 386,368.3 "
     fill="#5fb330"
     stroke="#3e8b1b"
     stroke-width="7"
     stroke-linejoin="round"
     id="polygon7"
     transform="matrix(1.2342932,0,0,1.2813537,-91.459081,-90.552549)" />
  <text
     x="382.58994"
     y="121.03781"
     font-family="'DejaVu Sans', Arial"
     font-size="110.74px"
     font-weight="bold"
     text-anchor="middle"
     fill="#ffffff"
     id="text7"
     transform="scale(1.1115969,0.89960667)"
     style="stroke-width:2.4074">€</text>
  <rect
     x="411.46335"
     y="406.03583"
     width="29.008846"
     height="79.581367"
     rx="6.5153556"
     fill="#e0392b"
     id="rect7"
     style="stroke-width:1.54082" />
  <rect
     x="385.71216"
     y="431.44061"
     width="80.666313"
     height="28.618689"
     rx="6.5153556"
     fill="#e0392b"
     id="rect8"
     style="stroke-width:1.54082" />
  <rect
     x="189.54001"
     y="194.64191"
     width="142.33888"
     height="136.0596"
     rx="15.250593"
     fill="#2d6cdf"
     stroke="#1e5bc6"
     stroke-width="8.66598"
     stroke-linejoin="round"
     id="rect9" />
  <text
     x="259.94388"
     y="287.87375"
     font-family="'DejaVu Sans', Arial"
     font-size="68.139px"
     font-weight="bold"
     text-anchor="middle"
     fill="#ffffff"
     id="text9"
     transform="scale(1.0100387,0.99006108)"
     style="stroke-width:1.54862">OM</text>
</svg>
